<?xml version="1.0" standalone="no"?><!DOCTYPE svg PUBLIC "-//W3C//DTD SVG 1.1//EN" "http://www.w3.org/Graphics/SVG/1.1/DTD/svg11.dtd"><svg t="1670317523444" class="icon" viewBox="0 0 1024 1024" version="1.1" xmlns="http://www.w3.org/2000/svg" p-id="3803" xmlns:xlink="http://www.w3.org/1999/xlink" width="16" height="16"><path d="M104.590222 937.813333l304.64-510.634666-73.244444-43.690667L6.058667 936.334222a42.666667 42.666667 0 0 0 16.213333 59.306667l14.848 8.106667c76.373333 41.557333 174.677333 17.408 219.392-57.6l255.516444-428.088889 255.544889 428.174222c44.714667 74.979556 143.018667 99.128889 219.392 57.514667l14.791111-8.049778a42.666667 42.666667 0 0 0 16.213334-59.306667L688.128 383.488l-73.272889 43.690667 304.64 510.577777c-31.232 4.721778-63.004444-9.187556-78.620444-35.271111l-270.791111-453.859555a42.666667 42.666667 0 0 0-36.693334-20.764445h-42.666666a42.666667 42.666667 0 0 0-36.636445 20.764445L183.267556 902.456889c-15.587556 26.112-47.36 40.021333-78.677334 35.299555v0.028445z" p-id="3804" fill="#ea5502"></path><path d="M512.028444 170.666667a128 128 0 1 0 0 256 128 128 0 0 0 0-256z m-213.333333 128a213.333333 213.333333 0 1 1 426.666667-0.028445 213.333333 213.333333 0 0 1-426.666667 0z m-194.247111 220.444444a42.666667 42.666667 0 0 1 59.164444 11.946667 456.163556 456.163556 0 0 0 80.952889 92.444444 42.666667 42.666667 0 0 1-55.921777 64.398222 542.890667 542.890667 0 0 1-96.142223-109.653333 42.666667 42.666667 0 0 1 11.946667-59.136z m815.189333 0a42.666667 42.666667 0 0 1 11.946667 59.164445 542.976 542.976 0 0 1-96.142222 109.624888 42.666667 42.666667 0 0 1-55.921778-64.426666 457.472 457.472 0 0 0 80.981333-92.416 42.666667 42.666667 0 0 1 59.136-11.946667z m-623.928889 194.56a42.666667 42.666667 0 0 1 56.234667-21.959111 397.710222 397.710222 0 0 0 320.199111 0 42.666667 42.666667 0 0 1 34.275556 78.165333 482.702222 482.702222 0 0 1-194.389334 40.789334c-68.778667 0-134.4-14.506667-194.389333-40.789334a42.666667 42.666667 0 0 1-21.959111-56.234666l0.028444 0.028444z" p-id="3805" fill="#ea5502"></path><path d="M512.028444 0a42.666667 42.666667 0 0 1 42.666667 42.666667v64.284444a42.666667 42.666667 0 1 1-85.333333 0V42.666667a42.666667 42.666667 0 0 1 42.666666-42.666667z" p-id="3806" fill="#ea5502"></path></svg>