<?xml version="1.0" standalone="no"?><!DOCTYPE svg PUBLIC "-//W3C//DTD SVG 1.1//EN" "http://www.w3.org/Graphics/SVG/1.1/DTD/svg11.dtd"><svg t="1670313922980" class="icon" viewBox="0 0 1024 1024" version="1.1" xmlns="http://www.w3.org/2000/svg" p-id="2708" xmlns:xlink="http://www.w3.org/1999/xlink" width="16" height="16"><path d="M560.064 736c0 26.496-48 112-48 112s-48-85.504-48-112a48 48 0 0 1 96 0zM736.064 304a176 176 0 1 0 0 352 176 176 0 0 0 0-352z m0 224a48 48 0 1 1 0-96 48 48 0 0 1 0 96zM320.064 304a176 176 0 1 0 0 352 176 176 0 0 0 0-352z m0 224a48 48 0 1 1 0-96 48 48 0 0 1 0 96z" fill="#E0EBFE" p-id="2709"></path><path d="M1004.96 423.328c15.456-65.76 26.88-165.312 12.512-247.52-7.488-43.008-24.832-69.024-51.584-77.312-19.872-6.208-42.784-0.384-61.28 15.584-8.864 7.68-15.776 16.48-21.856 24.224l-5.536 6.976c-22.304 27.04-51.456 44.576-82.016 49.344a124.16 124.16 0 0 0-4 0.672C707.936 151.232 611.68 128 512.064 128c-99.52 0-195.68 23.2-278.912 67.2-1.088-0.224-2.144-0.416-3.2-0.544-30.624-4.8-59.776-22.336-82.08-49.376l-5.568-6.976c-6.08-7.744-12.96-16.544-21.856-24.256-18.432-15.872-41.376-21.664-61.248-15.552C32.448 106.816 15.104 132.8 7.584 175.808c-14.304 82.176-2.88 181.76 12.576 247.52l0.768 2.944A344.416 344.416 0 0 0 0 544c0 229.376 229.696 416 512.064 416s512.064-186.624 512.064-416a344.96 344.96 0 0 0-20.352-116.352c0.416-1.408 0.832-2.88 1.184-4.32zM512.064 896C265.024 896 64 738.08 64 544c0-35.584 6.944-70.976 20.64-105.216 2.784-7.04 3.008-14.784 0.64-21.952l-1.568-4.448c-0.448-1.216-0.96-2.432-1.28-3.712-13.984-59.584-24.448-149.184-11.776-221.888 2.496-14.24 5.568-21.664 7.04-24.992a16.032 16.032 0 0 1 0.896 0.704c4.192 3.616 8.64 9.28 13.376 15.328l6.528 8.16c32.288 39.136 75.456 64.64 121.6 71.904l12.384 2.336a31.456 31.456 0 0 0 21.44-3.52C329.984 214.4 419.2 192 512.064 192c92.928 0 182.272 22.4 258.4 64.864 6.528 3.68 14.208 4.832 21.536 3.488l4.928-0.96c2.688-0.576 5.408-1.12 8.096-1.536 46.144-7.2 89.28-32.736 121.6-71.872l6.496-8.16c4.704-6.016 9.152-11.712 13.344-15.296l0.64-0.544c2.016 3.744 4.96 11.136 7.328 24.8 12.672 72.736 2.24 162.304-11.744 221.824-0.448 1.76-1.12 3.424-1.728 5.088l-1.44 4c-2.496 7.2-2.304 15.072 0.48 22.208A281.984 281.984 0 0 1 960.128 544c0 194.08-200.992 352-448.064 352z" fill="#1296db" p-id="2710" data-spm-anchor-id="a313x.7781069.0.i7" class="selected"></path><path d="M512.064 672c-35.296 0-64 28.704-64 64 0 29.216 41.696 104.96 50.048 119.84a16 16 0 0 0 27.904 0C534.368 840.96 576.064 765.216 576.064 736c0-35.296-28.704-64-64-64z m0 142.208c-17.152-33.248-32-67.328-32-78.208 0-17.632 14.368-32 32-32s32 14.368 32 32c0 10.88-14.848 44.96-32 78.208zM736.064 288c-105.888 0-192 86.112-192 192s86.112 192 192 192 192-86.112 192-192-86.112-192-192-192z m0 352c-88.224 0-160-71.776-160-160s71.776-160 160-160 160 71.776 160 160-71.776 160-160 160z" fill="#1296db" p-id="2711" data-spm-anchor-id="a313x.7781069.0.i4" class="selected"></path><path d="M736.064 416c-35.296 0-64 28.704-64 64s28.704 64 64 64 64-28.704 64-64-28.704-64-64-64z m0 96c-17.632 0-32-14.368-32-32s14.368-32 32-32 32 14.368 32 32-14.368 32-32 32zM512.064 480c0-105.888-86.112-192-192-192s-192 86.112-192 192 86.112 192 192 192 192-86.112 192-192z m-192 160c-88.224 0-160-71.776-160-160s71.776-160 160-160 160 71.776 160 160-71.776 160-160 160z" fill="#1296db" p-id="2712" data-spm-anchor-id="a313x.7781069.0.i5" class="selected"></path><path d="M320.064 416c-35.296 0-64 28.704-64 64s28.704 64 64 64 64-28.704 64-64-28.704-64-64-64z m0 96c-17.632 0-32-14.368-32-32s14.368-32 32-32 32 14.368 32 32-14.368 32-32 32z" fill="#1296db" p-id="2713" data-spm-anchor-id="a313x.7781069.0.i6" class="selected"></path></svg>